<svg id="Layer_1" enable-background="new 0 0 100 100" viewBox="0 0 100 100" xmlns="http://www.w3.org/2000/svg"><g fill="#ffc100"><path d="m43.3485298 49.9690399v28.5996094c0 3.373703-2.7412224 6.1148071-6.1339951 6.1148071h-28.5997276c-3.3735862 0-6.1148081-2.7411041-6.1148081-6.1148071v-35.3470192c0-8.6067085 3.5846477-20.3762951 20.7405052-27.487793 3.1628761-1.2268229 6.7090321.3450222 7.935854 3.4885941 1.188448 3.0670547-.2300148 6.4982033-3.2395077 7.8400326-11.8078432 4.8879852-13.1880483 11.5586414-13.1880483 16.1591663v.6134148h22.4657326c3.3927726 0 6.133995 2.7411041 6.133995 6.133995z"/><path d="m97.5 49.9690399v28.5996094c0 3.373703-2.7412186 6.1148071-6.1148071 6.1148071h-28.5997277c-3.3927727 0-6.1339951-2.7411041-6.1339951-6.1148071v-35.3470192c0-8.6067085 3.6037178-20.3762951 20.7596931-27.487793 3.143692-1.2268229 6.7090302.3450222 7.9358521 3.4885941 1.1884537 3.0670547-.2491989 6.4982033-3.2395096 7.8400326-11.8078383 4.8879852-13.1880492 11.5586414-13.1880492 16.1591663v.6134148h22.4657364c3.3735885 0 6.1148071 2.7411041 6.1148071 6.133995z"/></g></svg>